<svg width="38" height="38" viewBox="0 0 38 38" fill="none" xmlns="http://www.w3.org/2000/svg">
<path d="M6.33331 6.33334H9.52176C10.2717 6.33334 10.6467 6.33334 10.9179 6.54514C11.1892 6.75693 11.2802 7.12071 11.462 7.84827L11.9092 9.63682C12.273 11.0919 12.4549 11.8195 12.9974 12.2431C13.5399 12.6667 14.2898 12.6667 15.7898 12.6667H15.8333" stroke="#FFB703" stroke-width="2" stroke-linecap="round"/>
<path d="M28.5 26.9167H11.9556C10.9893 26.9167 10.5061 26.9167 10.2216 26.6628C10.1129 26.5658 10.0267 26.4462 9.96903 26.3123C9.81817 25.9621 9.97096 25.5038 10.2765 24.5871V24.5871C10.6139 23.5751 10.7825 23.0691 11.1351 22.7284C11.2732 22.595 11.4297 22.4822 11.5998 22.3934C12.0346 22.1667 12.5679 22.1667 13.6347 22.1667H22.1667" stroke="#FFB703" stroke-width="2" stroke-linecap="round" stroke-linejoin="round"/>
<path d="M24.4445 22.1667H16.0552C14.4368 22.1667 13.6276 22.1667 13.0682 21.6927C12.5087 21.2187 12.3756 20.4206 12.1096 18.8243L11.6655 16.1599C11.3953 14.5383 11.2601 13.7275 11.7095 13.1971C12.1588 12.6667 12.9808 12.6667 14.6247 12.6667H28.4306C29.881 12.6667 30.6061 12.6667 30.8993 13.1409C31.1924 13.6152 30.8681 14.2638 30.2194 15.5611L28.0222 19.9555C27.4843 21.0313 27.2153 21.5693 26.732 21.868C26.2487 22.1667 25.6473 22.1667 24.4445 22.1667Z" stroke="#FFB703" stroke-width="2" stroke-linecap="round"/>
<circle cx="26.9166" cy="31.6667" r="1.58333" fill="#FFB703"/>
<circle cx="14.25" cy="31.6667" r="1.58333" fill="#FFB703"/>
</svg>
